<svg width="32" height="32" viewBox="0 0 32 32" fill="none" xmlns="http://www.w3.org/2000/svg">
  <path 
    d="M16 4
       C18 4, 19.5 5, 20 6
       C22 6, 24 7, 25 9
       C26 11, 26 13, 25 15
       C26 17, 26 19, 25 21
       C24 23, 22 24, 20 24
       C19.5 25, 18 26, 16 26
       C14 26, 12.5 25, 12 24
       C10 24, 8 23, 7 21
       C6 19, 6 17, 7 15
       C6 13, 6 11, 7 9
       C8 7, 10 6, 12 6
       C12.5 5, 14 4, 16 4
       
       M16 10
       C18.5 10, 20.5 12, 20.5 14.5
       C20.5 17, 18.5 19, 16 19
       C13.5 19, 11.5 17, 11.5 14.5
       C11.5 12, 13.5 10, 16 10"
    fill="white"
  />
</svg> 