<?xml version="1.0" encoding="UTF-8" standalone="no"?>
<!-- Created with Inkscape (http://www.inkscape.org/) -->

<svg
   width="300mm"
   height="52mm"
   viewBox="0 0 300 52"
   version="1.1"
   id="svg1"
   xml:space="preserve"
   inkscape:version="1.4 (e7c3feb1, 2024-10-09)"
   sodipodi:docname="JassGuru_Logo.svg"
   xmlns:inkscape="http://www.inkscape.org/namespaces/inkscape"
   xmlns:sodipodi="http://sodipodi.sourceforge.net/DTD/sodipodi-0.dtd"
   xmlns="http://www.w3.org/2000/svg"
   xmlns:svg="http://www.w3.org/2000/svg"><sodipodi:namedview
     id="namedview1"
     pagecolor="#ffffff"
     bordercolor="#000000"
     borderopacity="0.25"
     inkscape:showpageshadow="2"
     inkscape:pageopacity="0.0"
     inkscape:pagecheckerboard="0"
     inkscape:deskcolor="#d1d1d1"
     inkscape:document-units="mm"
     inkscape:zoom="0.20696018"
     inkscape:cx="727.19302"
     inkscape:cy="60.398092"
     inkscape:window-width="1104"
     inkscape:window-height="664"
     inkscape:window-x="84"
     inkscape:window-y="113"
     inkscape:window-maximized="0"
     inkscape:current-layer="layer1" /><defs
     id="defs1" /><g
     inkscape:label="Ebene 1"
     inkscape:groupmode="layer"
     id="layer1"><path
       style="font-weight:bold;font-size:55.6344px;font-family:Capita;-inkscape-font-specification:'Capita, Bold';stroke-width:6.82565;fill:#1a1a1a;fill-opacity:1"
       d="m 65.426251,46.11866 c 1.14977,-0.66761 2.18828,-1.44649 3.11552,-2.33664 0.92724,-0.85306 1.57631,-1.72467 1.94721,-2.61482 0.40799,-0.96433 0.7047,-2.18828 0.89015,-3.67187 0.18545,-1.48359 0.27817,-3.30098 0.27817,-5.45217 V 12.40422 c 0,-1.00142 -0.0185,-1.74321 -0.0556,-2.22538 -0.0371,-0.48217 -0.14834,-0.81597 -0.33381,-1.00142 -0.18545,-0.29672 -0.59343,-0.50071 -1.22396,-0.61198 -0.63052,-0.14836 -1.72466,-0.25963 -3.28243,-0.3338 V 3.72525 c 0.40799,0 0.96433,0.0185 1.66904,0.0556 0.7047,0 1.46504,0.0185 2.28101,0.0556 0.85306,0 1.72466,0.0185 2.61481,0.0556 h 2.55919 c 1.63194,0 3.24534,-0.0185 4.84019,-0.0556 1.63194,-0.0371 3.00425,-0.0742 4.11694,-0.11127 v 4.50639 c -0.85306,0.0371 -1.53922,0.0927 -2.05847,0.1669 -0.51925,0.0371 -0.92724,0.11125 -1.22396,0.22254 -0.25963,0.0742 -0.46362,0.1669 -0.61197,0.27817 -0.11127,0.11127 -0.22254,0.22253 -0.33381,0.3338 -0.14836,0.18545 -0.25963,0.50072 -0.33381,0.94579 -0.0742,0.40799 -0.11127,1.16832 -0.11127,2.28101 v 19.47204 c 0,2.33665 -0.1669,4.41366 -0.50071,6.23105 -0.33381,1.7803 -0.98287,3.44933 -1.9472,5.0071 -0.48217,0.77888 -1.09414,1.52067 -1.83593,2.22537 -0.70471,0.70471 -1.50213,1.37232 -2.39228,2.00284 -0.85307,0.63053 -1.76176,1.18687 -2.72609,1.66903 -0.96433,0.51926 -1.92866,0.96434 -2.89299,1.33523 z m 48.624439,-5.22963 c -0.85306,0.29671 -1.85448,0.53779 -3.00426,0.72324 -1.11269,0.18545 -2.07702,0.27818 -2.89299,0.27818 -0.48216,0 -0.98287,-0.0371 -1.50213,-0.11127 -0.48216,-0.0371 -0.94578,-0.16688 -1.39086,-0.38944 -0.44507,-0.22254 -0.85306,-0.5378 -1.22395,-0.94579 -0.3709,-0.40799 -0.64907,-0.96433 -0.83452,-1.66903 -0.96433,0.96433 -2.1141,1.74321 -3.449329,2.33665 -1.29814,0.59343 -2.72609,0.89015 -4.28385,0.89015 -1.03851,0 -2.09556,-0.14836 -3.17116,-0.44508 -1.03851,-0.29671 -1.96575,-0.76033 -2.78172,-1.39086 -0.81597,-0.66761 -1.48359,-1.50213 -2.00284,-2.50355 -0.51925,-1.00142 -0.77888,-2.18829 -0.77888,-3.5606 0,-1.29813 0.22254,-2.42937 0.66761,-3.3937 0.48217,-1.00142 1.2425,-1.83594 2.28101,-2.50355 1.03851,-0.66761 2.39228,-1.16831 4.06131,-1.50212 1.70613,-0.3709 3.80169,-0.55635 6.286689,-0.55635 h 1.11269 c 0.51925,0 0.92724,0.0371 1.22395,0.11127 v -1.50213 c 0,-0.74179 -0.0371,-1.31668 -0.11126,-1.72466 -0.0742,-0.44508 -0.20399,-0.83452 -0.38944,-1.16833 -0.29672,-0.48216 -0.76034,-0.81597 -1.39086,-1.00142 -0.593439,-0.22253 -1.316689,-0.3338 -2.169749,-0.3338 -0.7047,0 -1.35377,0.0556 -1.9472,0.1669 -0.55635,0.11127 -1.01997,0.31526 -1.39086,0.61198 -0.33381,0.25963 -0.59343,0.64907 -0.77888,1.16832 -0.14836,0.51925 -0.25963,1.27959 -0.33381,2.28101 h -4.56202 c -0.11127,-0.59343 -0.22254,-1.33522 -0.33381,-2.22537 -0.11127,-0.92724 -0.1669,-1.76176 -0.1669,-2.50355 0,-1.00142 0.24108,-1.79885 0.72325,-2.39228 0.48217,-0.63053 1.14978,-1.13124 2.00284,-1.50213 0.89015,-0.37089 2.02138,-0.68615 3.3937,-0.94578 1.4094,-0.29672 2.74462,-0.44508 4.00567,-0.44508 1.520669,0 2.800269,0.0742 3.838779,0.22254 1.07559,0.14836 1.96574,0.35235 2.67045,0.61198 0.74179,0.25963 1.33522,0.55634 1.7803,0.89015 0.44507,0.29671 0.81597,0.61197 1.11269,0.94578 1.14977,1.33523 1.72466,3.41224 1.72466,6.23105 v 2.16975 c 0,1.00141 -0.0185,2.02138 -0.0556,3.05989 v 2.83735 1.4465 c 0,1.29813 0.1669,2.16974 0.50071,2.61481 0.37089,0.40799 0.89015,0.61198 1.55776,0.61198 h 0.94579 c 0.29671,-0.0371 0.64906,-0.0927 1.05705,-0.1669 z m -11.68323,-9.84729 c -0.25963,-0.0742 -0.63052,-0.11127 -1.11268,-0.11127 -0.48217,-0.0371 -0.87161,-0.0556 -1.16833,-0.0556 -2.114109,0 -3.560599,0.25963 -4.339479,0.77888 -0.74179,0.48216 -1.11269,1.14977 -1.11269,2.00284 0,1.07559 0.35235,1.81738 1.05706,2.22537 0.7047,0.40799 1.44649,0.61198 2.22537,0.61198 0.89015,0 1.72467,-0.11127 2.503549,-0.33381 0.77888,-0.22253 1.42795,-0.48216 1.9472,-0.77888 z m 18.91569,0.50071 c 0.18545,1.18687 0.42653,2.03993 0.72325,2.55918 0.33381,0.48217 0.66761,0.87161 1.00142,1.16832 1.00142,0.89015 2.57773,1.33523 4.72892,1.33523 1.29814,0 2.22538,-0.1669 2.78172,-0.50071 0.55635,-0.33381 0.83452,-0.77888 0.83452,-1.33523 0,-0.51925 -0.14836,-0.90869 -0.44508,-1.16832 -0.29671,-0.29671 -0.79742,-0.57488 -1.50213,-0.83451 l -5.11836,-1.89157 c -1.48359,-0.55635 -2.689,-1.11269 -3.61624,-1.66904 -0.89015,-0.59343 -1.59485,-1.20541 -2.1141,-1.83593 -0.48217,-0.63053 -0.81597,-1.29814 -1.00142,-2.00284 -0.14836,-0.74179 -0.22254,-1.53922 -0.22254,-2.39228 0,-1.11269 0.24108,-2.16974 0.72325,-3.17116 0.51925,-1.00142 1.26104,-1.87303 2.22537,-2.61482 1.00142,-0.77888 2.24392,-1.37231 3.72751,-1.7803 1.48358,-0.44507 3.22679,-0.66761 5.22963,-0.66761 1.18687,0 2.42937,0.11127 3.72751,0.33381 1.29813,0.18545 2.37373,0.48216 3.22679,0.89015 0.63053,0.29671 1.09415,0.72324 1.39086,1.27959 0.33381,0.51925 0.50071,1.22396 0.50071,2.11411 0,0.25963 -0.0185,0.61198 -0.0556,1.05705 0,0.40799 -0.0371,0.85306 -0.11127,1.33522 -0.0371,0.44508 -0.0742,0.9087 -0.11127,1.39086 -0.0371,0.44508 -0.0927,0.83452 -0.1669,1.16833 h -4.11695 c -0.18545,-1.0756 -0.38944,-1.81739 -0.61198,-2.22538 -0.22254,-0.40799 -0.51926,-0.74179 -0.89015,-1.00142 -0.37089,-0.25963 -0.92724,-0.44507 -1.66903,-0.55634 -0.7047,-0.14836 -1.44649,-0.22254 -2.22538,-0.22254 -1.26105,0 -2.09556,0.18545 -2.50355,0.55634 -0.40798,0.3709 -0.61197,0.81598 -0.61197,1.33523 0,0.48217 0.14836,0.85306 0.44507,1.11269 0.33381,0.25963 0.87161,0.5378 1.6134,0.83451 l 5.174,1.89157 c 1.44649,0.51925 2.61482,1.05705 3.50497,1.6134 0.89015,0.51925 1.59485,1.09414 2.1141,1.72467 0.51925,0.59343 0.87161,1.26105 1.05706,2.00284 0.18545,0.74179 0.27817,1.55776 0.27817,2.44791 0,1.40941 -0.31526,2.63336 -0.94579,3.67187 -0.59343,1.03851 -1.42795,1.91011 -2.50354,2.61482 -1.0756,0.7047 -2.33665,1.22395 -3.78314,1.55776 -1.4465,0.33381 -3.00426,0.50071 -4.67329,0.50071 -1.22396,0 -2.46646,-0.0742 -3.72751,-0.22254 -1.26105,-0.14836 -2.28101,-0.3709 -3.05989,-0.66761 -1.52067,-0.51925 -2.50355,-1.2425 -2.94862,-2.16974 -0.44508,-0.96433 -0.66762,-1.9843 -0.66762,-3.05989 0,-0.92724 0.0185,-1.7803 0.0556,-2.55919 0.0371,-0.77888 0.0927,-1.42795 0.1669,-1.9472 z m 26.42636,0 c 0.18545,1.18687 0.42653,2.03993 0.72325,2.55918 0.33381,0.48217 0.66761,0.87161 1.00142,1.16832 1.00141,0.89015 2.57772,1.33523 4.72892,1.33523 1.29813,0 2.22537,-0.1669 2.78172,-0.50071 0.55635,-0.33381 0.83452,-0.77888 0.83452,-1.33523 0,-0.51925 -0.14836,-0.90869 -0.44508,-1.16832 -0.29672,-0.29671 -0.79743,-0.57488 -1.50213,-0.83451 l -5.11836,-1.89157 c -1.48359,-0.55635 -2.689,-1.11269 -3.61624,-1.66904 -0.89015,-0.59343 -1.59486,-1.20541 -2.11411,-1.83593 -0.48216,-0.63053 -0.81597,-1.29814 -1.00142,-2.00284 -0.14835,-0.74179 -0.22253,-1.53922 -0.22253,-2.39228 0,-1.11269 0.24108,-2.16974 0.72324,-3.17116 0.51926,-1.00142 1.26105,-1.87303 2.22538,-2.61482 1.00142,-0.77888 2.24392,-1.37231 3.7275,-1.7803 1.48359,-0.44507 3.2268,-0.66761 5.22964,-0.66761 1.18687,0 2.42937,0.11127 3.7275,0.33381 1.29814,0.18545 2.37374,0.48216 3.2268,0.89015 0.63052,0.29671 1.09414,0.72324 1.39086,1.27959 0.33381,0.51925 0.50071,1.22396 0.50071,2.11411 0,0.25963 -0.0185,0.61198 -0.0556,1.05705 0,0.40799 -0.0371,0.85306 -0.11127,1.33522 -0.0371,0.44508 -0.0742,0.9087 -0.11126,1.39086 -0.0371,0.44508 -0.0927,0.83452 -0.16691,1.16833 h -4.11694 c -0.18545,-1.0756 -0.38945,-1.81739 -0.61198,-2.22538 -0.22254,-0.40799 -0.51926,-0.74179 -0.89015,-1.00142 -0.3709,-0.25963 -0.92724,-0.44507 -1.66903,-0.55634 -0.70471,-0.14836 -1.4465,-0.22254 -2.22538,-0.22254 -1.26105,0 -2.09556,0.18545 -2.50355,0.55634 -0.40799,0.3709 -0.61198,0.81598 -0.61198,1.33523 0,0.48217 0.14836,0.85306 0.44508,1.11269 0.33381,0.25963 0.87161,0.5378 1.6134,0.83451 l 5.174,1.89157 c 1.44649,0.51925 2.61481,1.05705 3.50496,1.6134 0.89015,0.51925 1.59486,1.09414 2.11411,1.72467 0.51925,0.59343 0.8716,1.26105 1.05705,2.00284 0.18545,0.74179 0.27818,1.55776 0.27818,2.44791 0,1.40941 -0.31526,2.63336 -0.94579,3.67187 -0.59343,1.03851 -1.42795,1.91011 -2.50355,2.61482 -1.07559,0.7047 -2.33664,1.22395 -3.78314,1.55776 -1.44649,0.33381 -3.00426,0.50071 -4.67329,0.50071 -1.22395,0 -2.46645,-0.0742 -3.7275,-0.22254 -1.26105,-0.14836 -2.28101,-0.3709 -3.05989,-0.66761 -1.52067,-0.51925 -2.50355,-1.2425 -2.94863,-2.16974 -0.44507,-0.96433 -0.66761,-1.9843 -0.66761,-3.05989 0,-0.92724 0.0185,-1.7803 0.0556,-2.55919 0.0371,-0.77888 0.0927,-1.42795 0.1669,-1.9472 z m 59.02812,-4.17258 c -0.85306,0.0742 -1.52067,0.1669 -2.00284,0.27817 -0.44507,0.0742 -0.77888,0.24108 -1.00142,0.50071 -0.14836,0.18545 -0.25963,0.48216 -0.33381,0.89015 -0.0371,0.37089 -0.0556,0.76033 -0.0556,1.16832 v 6.73177 c 0,0.89015 -0.1669,1.55776 -0.50071,2.00283 -0.29672,0.44508 -0.81597,0.81598 -1.55776,1.11269 -1.48359,0.63053 -3.31952,1.14978 -5.50781,1.55776 -2.15119,0.40799 -4.39511,0.61198 -6.73176,0.61198 -2.81881,0 -5.39654,-0.40798 -7.73318,-1.22395 -2.33665,-0.81597 -4.35803,-2.02139 -6.06415,-3.61624 -1.66903,-1.63194 -2.98571,-3.61623 -3.95004,-5.95288 -0.92724,-2.37373 -1.39086,-5.09982 -1.39086,-8.17826 0,-3.11553 0.46362,-5.91579 1.39086,-8.40079 0.96433,-2.52209 2.33664,-4.65475 4.11694,-6.39796 1.7803,-1.7803 3.91295,-3.15261 6.39796,-4.11694 2.52209,-0.96433 5.3409,-1.4465 8.45643,-1.4465 2.67045,0 4.91437,0.14836 6.73176,0.44508 1.81739,0.29671 3.26388,0.72324 4.33948,1.27959 0.7047,0.37089 1.26104,0.83451 1.66903,1.39086 0.44508,0.55635 0.66762,1.29814 0.66762,2.22538 0,0.40798 -0.0185,0.90869 -0.0556,1.50212 -0.0371,0.59343 -0.0927,1.22396 -0.1669,1.89157 -0.0742,0.63053 -0.14836,1.2796 -0.22254,1.94721 -0.0742,0.63052 -0.1669,1.22395 -0.27817,1.7803 H 198.17 c -0.18545,-1.29814 -0.38944,-2.29956 -0.61198,-3.00426 -0.18545,-0.7047 -0.40798,-1.2425 -0.66761,-1.6134 -0.48217,-0.63052 -1.22396,-1.05705 -2.22538,-1.27959 -1.00142,-0.22253 -2.33664,-0.3338 -4.00567,-0.3338 -1.33523,0 -2.70754,0.20399 -4.11695,0.61197 -1.40941,0.3709 -2.689,1.05706 -3.83877,2.05848 -1.14978,1.00142 -2.09557,2.39228 -2.83736,4.17258 -0.7047,1.74321 -1.05705,3.98713 -1.05705,6.73176 0,2.67045 0.3709,4.85874 1.11269,6.56486 0.74179,1.70612 1.66903,3.04135 2.78172,4.00568 1.14977,0.96433 2.37236,1.63677 3.67187,2.00283 1.33387,0.37574 2.57773,0.55635 3.7275,0.55635 0.51925,0 1.11269,-0.0185 1.7803,-0.0556 0.70471,-0.0742 1.20542,-0.14836 1.50213,-0.22253 0.29672,-0.0742 0.55635,-0.16691 0.77888,-0.27818 0.22254,-0.14835 0.38944,-0.27817 0.50071,-0.38944 0.18545,-0.18545 0.29672,-0.42653 0.33381,-0.72324 0.0742,-0.33381 0.11127,-0.74179 0.11127,-1.22396 v -2.78172 c 0,-0.63053 -0.0556,-1.09415 -0.1669,-1.39086 -0.11127,-0.33381 -0.27818,-0.57489 -0.50071,-0.72325 -0.40799,-0.18545 -1.00142,-0.31526 -1.78031,-0.38944 -0.74179,-0.11127 -1.55776,-0.20399 -2.44791,-0.27817 v -4.56202 c 0.40799,0 1.03851,0.0185 1.89157,0.0556 0.89015,0 1.79885,0.0185 2.72609,0.0556 h 2.67045 1.66903 1.55776 2.05848 c 0.74179,-0.0371 1.46503,-0.0556 2.16974,-0.0556 0.7047,-0.0371 1.29813,-0.0556 1.7803,-0.0556 z m 22.36508,11.01561 c -0.96433,1.0756 -2.20684,1.96575 -3.72751,2.67045 -1.48358,0.66761 -3.13407,1.00142 -4.95146,1.00142 -1.66903,0 -3.11552,-0.27817 -4.33948,-0.83452 -1.18687,-0.55634 -2.07702,-1.4094 -2.67045,-2.55918 -0.44507,-0.81597 -0.77888,-1.70612 -1.00142,-2.67045 -0.18545,-1.00142 -0.27817,-2.26247 -0.27817,-3.78314 v -6.9543 c 0,-1.14977 -0.0556,-1.98429 -0.16691,-2.50355 -0.11127,-0.51925 -0.29671,-0.85306 -0.55634,-1.00142 -0.29671,-0.18545 -0.57489,-0.29671 -0.83452,-0.3338 -0.22253,-0.0371 -0.51925,-0.0556 -0.89015,-0.0556 -0.18545,0 -0.42653,0.0185 -0.72324,0.0556 h -0.72325 V 17.0775 c 1.37231,-0.7047 2.74463,-1.22395 4.11695,-1.55776 1.4094,-0.33381 2.76317,-0.50071 4.06131,-0.50071 1.03851,0 1.91011,0.29672 2.61481,0.89015 0.70471,0.55635 1.05706,1.74321 1.05706,3.5606 0,0.59343 -0.0185,1.37232 -0.0556,2.33665 0,0.96433 -0.0185,1.98429 -0.0556,3.05989 0,1.0756 -0.0185,2.16974 -0.0556,3.28243 v 3.00426 c 0,0.96433 0.0927,1.74321 0.27818,2.33664 0.22253,0.55635 0.51925,1.00142 0.89015,1.33523 0.37089,0.29671 0.77888,0.50071 1.22395,0.61198 0.48217,0.11127 1.00142,0.1669 1.55777,0.1669 0.96433,0 1.85448,-0.11127 2.67045,-0.33381 0.81597,-0.25963 1.55776,-0.59343 2.22537,-1.00142 v -9.01277 c 0,-1.14977 -0.0742,-1.96574 -0.22253,-2.44791 -0.11127,-0.51925 -0.31527,-0.87161 -0.61198,-1.05706 -0.22254,-0.14835 -0.51926,-0.24108 -0.89015,-0.27817 -0.33381,-0.0742 -0.64907,-0.11127 -0.94579,-0.11127 h -0.66761 c -0.22254,0 -0.46362,0.0185 -0.72325,0.0556 v -4.33949 c 1.33523,-0.7047 2.74463,-1.22395 4.22822,-1.55776 1.48358,-0.33381 2.85589,-0.50071 4.11694,-0.50071 1.00142,0 1.85448,0.29672 2.55918,0.89015 0.74179,0.55635 1.11269,1.76176 1.11269,3.61624 0,0.59343 -0.0185,1.50213 -0.0556,2.72608 0,1.18687 -0.0185,2.44791 -0.0556,3.78314 -0.0371,1.33523 -0.0742,2.61482 -0.11127,3.83878 v 2.78172 c 0,1.44649 0.12982,2.42937 0.38945,2.94862 0.29671,0.51925 0.92723,0.77888 1.89156,0.77888 0.48217,0 1.0756,-0.0556 1.78031,-0.1669 v 4.56202 c -1.11269,0.44507 -2.28102,0.76033 -3.50497,0.94578 -1.22396,0.18545 -2.37374,0.27818 -3.44933,0.27818 -0.96433,0 -1.91012,-0.25963 -2.83736,-0.77889 -0.89015,-0.51925 -1.44649,-1.46504 -1.66903,-2.83735 z m 30.20949,3.05989 c -0.59343,0 -1.31668,-0.0185 -2.16974,-0.0556 h -2.44791 c -0.77888,-0.0371 -1.52067,-0.0556 -2.22538,-0.0556 h -1.55776 -1.50213 -2.11411 c -0.74179,0 -1.52067,0.0185 -2.33664,0.0556 -0.77888,0 -1.48358,0.0185 -2.11411,0.0556 v -4.45075 c 1.29814,-0.14836 2.16975,-0.27817 2.61482,-0.38944 0.44507,-0.11127 0.77888,-0.27817 1.00142,-0.50071 0.14835,-0.18545 0.25962,-0.48216 0.3338,-0.89015 0.0742,-0.44507 0.11127,-1.14978 0.11127,-2.11411 v -7.84445 c 0,-1.14977 -0.0742,-1.96574 -0.22254,-2.44791 -0.14835,-0.51925 -0.35234,-0.87161 -0.61197,-1.05706 -0.22254,-0.14835 -0.51926,-0.24108 -0.89015,-0.27817 -0.33381,-0.0742 -0.64907,-0.11127 -0.94579,-0.11127 h -0.66761 c -0.25963,0 -0.50071,0.0185 -0.72325,0.0556 v -4.33949 c 1.40941,-0.7047 2.80027,-1.22395 4.17258,-1.55776 1.40941,-0.33381 2.74463,-0.50071 4.00568,-0.50071 0.85306,0 1.6134,0.22254 2.28101,0.66761 0.66761,0.44508 1.09414,1.39087 1.27959,2.83736 0.74179,-1.03851 1.72467,-1.91011 2.94862,-2.61482 1.22396,-0.7047 2.44792,-1.05705 3.67187,-1.05705 1.00142,0 1.85448,0.24108 2.55919,0.72325 0.74179,0.48216 1.11268,1.39085 1.11268,2.72608 0,0.63053 -0.0556,1.42795 -0.1669,2.39228 -0.0742,0.96433 -0.20399,2.03993 -0.38944,3.2268 h -4.67329 c -0.18545,-1.0756 -0.42653,-1.79885 -0.72325,-2.16975 -0.29671,-0.37089 -0.74179,-0.55634 -1.33522,-0.55634 -0.44508,0 -0.94579,0.11127 -1.50213,0.33381 -0.51925,0.22253 -0.98287,0.5007 -1.39086,0.83451 v 10.57054 c 0,0.96433 0.0556,1.70612 0.1669,2.22537 0.11127,0.48217 0.25963,0.83452 0.44508,1.05706 0.22253,0.25963 0.68615,0.44507 1.39086,0.55634 0.74179,0.0742 1.61339,0.14836 2.61481,0.22254 z m 27.81726,-3.05989 c -0.96433,1.0756 -2.20684,1.96575 -3.72751,2.67045 -1.48358,0.66761 -3.13407,1.00142 -4.95146,1.00142 -1.66903,0 -3.11553,-0.27817 -4.33948,-0.83452 -1.18687,-0.55634 -2.07702,-1.4094 -2.67045,-2.55918 -0.44508,-0.81597 -0.77889,-1.70612 -1.00142,-2.67045 -0.18545,-1.00142 -0.27817,-2.26247 -0.27817,-3.78314 v -6.9543 c 0,-1.14977 -0.0556,-1.98429 -0.16691,-2.50355 -0.11127,-0.51925 -0.29671,-0.85306 -0.55634,-1.00142 -0.29672,-0.18545 -0.57489,-0.29671 -0.83452,-0.3338 -0.22253,-0.0371 -0.51925,-0.0556 -0.89015,-0.0556 -0.18545,0 -0.42653,0.0185 -0.72324,0.0556 h -0.72325 V 17.0775 c 1.37231,-0.7047 2.74463,-1.22395 4.11694,-1.55776 1.40941,-0.33381 2.76318,-0.50071 4.06131,-0.50071 1.03851,0 1.91012,0.29672 2.61482,0.89015 0.70471,0.55635 1.05706,1.74321 1.05706,3.5606 0,0.59343 -0.0185,1.37232 -0.0556,2.33665 0,0.96433 -0.0185,1.98429 -0.0556,3.05989 0,1.0756 -0.0185,2.16974 -0.0556,3.28243 v 3.00426 c 0,0.96433 0.0927,1.74321 0.27817,2.33664 0.22254,0.55635 0.51926,1.00142 0.89015,1.33523 0.3709,0.29671 0.77889,0.50071 1.22396,0.61198 0.48217,0.11127 1.00142,0.1669 1.55776,0.1669 0.96433,0 1.85449,-0.11127 2.67046,-0.33381 0.81597,-0.25963 1.55776,-0.59343 2.22537,-1.00142 v -9.01277 c 0,-1.14977 -0.0742,-1.96574 -0.22254,-2.44791 -0.11127,-0.51925 -0.31526,-0.87161 -0.61197,-1.05706 -0.22254,-0.14835 -0.51926,-0.24108 -0.89015,-0.27817 -0.33381,-0.0742 -0.64907,-0.11127 -0.94579,-0.11127 h -0.66761 c -0.22254,0 -0.46362,0.0185 -0.72325,0.0556 v -4.33949 c 1.33523,-0.7047 2.74463,-1.22395 4.22821,-1.55776 1.48359,-0.33381 2.8559,-0.50071 4.11695,-0.50071 1.00142,0 1.85448,0.29672 2.55918,0.89015 0.74179,0.55635 1.11269,1.76176 1.11269,3.61624 0,0.59343 -0.0185,1.50213 -0.0556,2.72608 0,1.18687 -0.0185,2.44791 -0.0556,3.78314 -0.0371,1.33523 -0.0742,2.61482 -0.11127,3.83878 v 2.78172 c 0,1.44649 0.12981,2.42937 0.38944,2.94862 0.29672,0.51925 0.92724,0.77888 1.89157,0.77888 0.48217,0 1.0756,-0.0556 1.7803,-0.1669 v 4.56202 c -1.11269,0.44507 -2.28101,0.76033 -3.50496,0.94578 -1.22396,0.18545 -2.37374,0.27818 -3.44934,0.27818 -0.96433,0 -1.91011,-0.25963 -2.83735,-0.77889 -0.89015,-0.51925 -1.4465,-1.46504 -1.66903,-2.83735 z"
       id="text1"
       aria-label="JassGuru"
       sodipodi:nodetypes="cccsssscccccccsccccccccsscscccccccscssccsccsscscsscscccsccccccscccsccccssccscscccccscssssccccssssccccccscccscccscccccsscssscccccsscssssccssccccssssccccccscccscccscccccsscssscccccsscssssccssccccccsscccssccscccssccssccccccsscscsscsscscscssccccccccccccccccscccsssccsccccscscccscccsccscccssccsscscscscsccssccccccsccscccsccsscccsscccsscsscscccssccscccccccscccsssccsccccscscccscccsccscccssccsscscscscsccssccc" /><path
       fill-rule="evenodd"
       clip-rule="evenodd"
       d="M 28.660881,51.52085 C 24.170406,42.77296 20.550038,40.53549 13.04525,35.54775 5.074256,30.23378 -1.389573,21.5791 1.531581,12.24066 5.493773,-0.34511 21.466784,-2.83123 28.660881,7.89004 c 7.194107,-10.72127 23.182733,-8.26621 27.1294,4.35062 2.92115,9.33844 -3.542533,17.99312 -11.513685,23.30709 -7.489324,4.98774 -11.125229,7.22521 -15.615715,15.9731 z"
       fill="#ff0000"
       style="fill-opacity:1;stroke-width:1.55381"
       id="path3-8-0" /></g></svg>
