<?xml version="1.0" encoding="UTF-8"?>
<svg id="Ebene_1" xmlns="http://www.w3.org/2000/svg" version="1.1" viewBox="0 0 32 32">
  <!-- Generator: Adobe Illustrator 29.1.0, SVG Export Plug-In . SVG Version: 2.1.0 Build 142)  -->
  <defs>
    <style>
      .st0 {
        fill: #fff;
      }
    </style>
  </defs>
  <path class="st0" d="M16,5.3c-5.9,0-10.7,4.8-10.7,10.7s4.8,10.7,10.7,10.7,10.7-4.8,10.7-10.7-4.8-10.7-10.7-10.7ZM18.5,20.7c-.7.7-1.5,1-2.6,1s-1.8-.3-2.4-.9c-.6-.6-1-1.3-1.1-2.3l2-.3c0,.5.2.9.5,1.2.3.3.6.4,1,.4s.8-.2,1.1-.5c.3-.3.4-.8.4-1.4s-.1-1-.4-1.3c-.3-.3-.6-.5-1-.5s-.6,0-.9.2l.2-1.7c.6,0,1-.1,1.3-.4.3-.3.4-.6.4-1.1s-.1-.7-.3-.9c-.2-.2-.5-.3-.9-.3s-.7.1-.9.4c-.2.3-.4.6-.5,1.1l-1.9-.3c.1-.7.3-1.2.6-1.6.3-.4.6-.7,1.1-1,.5-.2,1-.3,1.6-.3,1,0,1.8.3,2.4,1,.5.5.8,1.2.8,1.9,0,1-.5,1.8-1.5,2.4.6.1,1.1.4,1.5.9.4.5.6,1.1.6,1.7,0,1-.3,1.8-1,2.5Z"/>
</svg>