<?xml version="1.0" encoding="UTF-8"?>
<svg id="Ebene_1" xmlns="http://www.w3.org/2000/svg" version="1.1" viewBox="0 0 32 32">
  <!-- Generator: Adobe Illustrator 29.1.0, SVG Export Plug-In . SVG Version: 2.1.0 Build 142)  -->
  <defs>
    <style>
      .st0 {
        fill: #fff;
      }
    </style>
  </defs>
  <path class="st0" d="M5,14.3c.9,0,1.6,0,2-.3s.6-.7.6-1.6v-2.9c0-.4-.1-.9-.5-1.2-.2-.3-.7-.4-1.2-.4s-.9.1-1.2.6c-.2.4-.4.7-.4,1v1.9H1.1v-1.9c0-.7.1-1.3.4-1.9s.6-1.2,1.1-1.6.9-.7,1.5-1c.6-.3,1.2-.4,1.9-.4s1.6.1,2.2.6,1.1.7,1.3,1c.2.3.4.6.6.7s.2.6.4.9c.2.7.2,1.8.2,3.2v1.9c0,.4,0,.9-.2,1.2-.1.3-.4.6-.6.9-.2.3-.6.4-1.1.7.5.3.9.6,1.2.9s.5.6.6,1c.1.4.2.9.2,1.3v4c0,.4,0,.9-.1,1.2,0,.3-.1.6-.2.9s-.2.4-.5.7c-.4.6-.9,1.2-1.5,1.5-.6.4-1.4.6-2.5.6s-1.1,0-1.6-.3c-.6-.1-1.1-.4-1.5-.9-.5-.4-.8-.9-1.2-1.5s-.5-1.5-.5-2.4v-1.9h3.3v1.8c0,.6.1.9.5,1.3.4.4.7.4,1.2.4s.8-.1,1.2-.4c.2-.3.5-.7.5-1.3v-3.4c0-.9-.1-1.5-.5-1.8-.2-.1-.5-.3-.8-.3h-1.3v-2.9h-.1Z"/>
  <path class="st0" d="M12.9,20.5l2.7-4.2-2.6-4.1h2.3l1.4,2.3,1.4-2.3h2.3l-2.6,4.1,2.7,4.2h-2.3l-1.5-2.4-1.5,2.4h-2.3Z"/>
  <path class="st0" d="M25.3,14.2c.9,0,1.6,0,2-.3.4-.3.6-.7.6-1.6v-2.9c0-.4-.1-.9-.5-1.2-.2-.3-.7-.4-1.2-.4s-.9.1-1.2.6c-.2.4-.4.7-.4,1v1.9h-3.3v-1.9c0-.7.1-1.3.4-1.9.2-.6.6-1.2,1.1-1.6s.9-.7,1.5-1,1.2-.4,1.9-.4,1.6.1,2.2.6,1.1.7,1.3,1,.4.6.6.7.2.6.4.9c.2.7.2,1.8.2,3.2v1.9c0,.4,0,.9-.2,1.2-.1.3-.4.6-.6.9-.2.3-.6.4-1.1.7.5.3.9.6,1.2.9s.5.6.6,1c.1.4.2.9.2,1.3v4c0,.4,0,.9-.1,1.2,0,.3-.1.6-.2.9s-.2.4-.5.7c-.4.6-.9,1.2-1.5,1.5-.6.4-1.4.6-2.5.6s-1.1,0-1.6-.3c-.6-.1-1.1-.4-1.5-.9-.5-.4-.8-.9-1.2-1.5s-.5-1.5-.5-2.4v-1.9h3.3v1.8c0,.6.1.9.5,1.3s.7.4,1.2.4.8-.1,1.2-.4c.2-.3.5-.7.5-1.3v-3.4c0-.9-.1-1.5-.5-1.8-.2-.1-.5-.3-.8-.3h-1.3v-2.9h-.1Z"/>
</svg>