<?xml version="1.0" encoding="UTF-8" standalone="no"?>
<svg
   id="Ebene_1"
   version="1.1"
   viewBox="0 0 32 32"
   sodipodi:docname="quer.svg"
   inkscape:version="1.4 (e7c3feb1, 2024-10-09)"
   xmlns:inkscape="http://www.inkscape.org/namespaces/inkscape"
   xmlns:sodipodi="http://sodipodi.sourceforge.net/DTD/sodipodi-0.dtd"
   xmlns="http://www.w3.org/2000/svg"
   xmlns:svg="http://www.w3.org/2000/svg">
  <sodipodi:namedview
     id="namedview7"
     pagecolor="#ffffff"
     bordercolor="#000000"
     borderopacity="0.25"
     inkscape:showpageshadow="2"
     inkscape:pageopacity="0.0"
     inkscape:pagecheckerboard="0"
     inkscape:deskcolor="#d1d1d1"
     inkscape:zoom="9.1923881"
     inkscape:cx="15.556349"
     inkscape:cy="12.455958"
     inkscape:window-width="1440"
     inkscape:window-height="900"
     inkscape:window-x="0"
     inkscape:window-y="0"
     inkscape:window-maximized="0"
     inkscape:current-layer="Ebene_1" />
  <!-- Generator: Adobe Illustrator 29.2.1, SVG Export Plug-In . SVG Version: 2.1.0 Build 116)  -->
  <defs
     id="defs1">
    <style
       id="style1">
      .st0 {
        fill: #fff;
      }
    </style>
  </defs>
  <rect
     class="st0"
     x="-10.628576"
     y="19.176096"
     width="21.200001"
     height="6.6999998"
     transform="rotate(-45)"
     id="rect1" />
  <polygon
     class="st0"
     points="-2.5,4.3 -2.5,16.7 -15.3,4.3 "
     id="polygon1"
     transform="translate(30)" />
  <polygon
     class="st0"
     points="-26,27.6 -26,15.1 -13.3,27.6 "
     id="polygon2"
     transform="translate(30)" />
  <rect
     class="st0"
     x="60.799999"
     y="6.4000001"
     width="5.0999999"
     height="9.6000004"
     id="rect2" />
  <polygon
     class="st0"
     points="8.6,13.5 8.6,18.6 23.3,18.6 23.3,13.5 "
     id="polygon3"
     transform="translate(40)" />
  <circle
     class="st0"
     cx="63.200001"
     cy="15.9"
     id="ellipse3"
     r="2.8" />
  <rect
     class="st0"
     x="-51.099998"
     y="-23.9"
     width="5.0999999"
     height="8.1000004"
     transform="scale(-1)"
     id="rect3" />
  <ellipse
     class="st0"
     cx="48.799999"
     cy="16.1"
     rx="2.7"
     ry="2.8"
     id="ellipse4" />
  <path
     class="st0"
     d="M 63.3,1.7 70,8.5 h -4 v 6.8 H 60.6 V 8.5 h -4 z"
     id="path4" />
  <path
     class="st0"
     d="M 48.7,30.4 42,23.6 h 4 v -6.8 h 5.4 v 6.8 h 4 z"
     id="path5" />
  <rect
     class="st0"
     x="48.799999"
     y="13.3"
     width="14.4"
     height="5.4000001"
     id="rect5" />
  <rect
     class="st0"
     x="-15.9"
     y="60.599998"
     width="9.3000002"
     height="5.4000001"
     transform="rotate(-90)"
     id="rect6" />
  <rect
     class="st0"
     x="-25.4"
     y="46"
     width="9.3000002"
     height="5.4000001"
     transform="rotate(-90)"
     id="rect7" />
</svg>
